<?xml version="1.0" encoding="utf-8"?>
<!-- Generator: Adobe Illustrator 22.0.1, SVG Export Plug-In . SVG Version: 6.00 Build 0)  -->
<svg version="1.1" id="Layer_1" xmlns="http://www.w3.org/2000/svg" xmlns:xlink="http://www.w3.org/1999/xlink" x="0px" y="0px"
	 viewBox="0 0 576 512" style="enable-background:new 0 0 576 512;" xml:space="preserve">
<style type="text/css">
	.st0{fill:#FFFFFF;}
</style>
<path class="st0" d="M256,88v336c0,21.4-25.9,32-41,17l-89-89H24c-13.3,0-24-10.7-24-24V184c0-13.3,10.7-24,24-24h102.1l89-89
	C230,56,256,66.6,256,88z M438.1,10.1c-15.1-9.2-34.8-4.5-44,10.6c-9.2,15.1-4.5,34.8,10.6,44C469,104.1,512,175,512,256
	c0,73.4-36.1,142.3-96.5,184.2c-14.5,10.1-18.1,30-8.1,44.5c10.1,14.5,30,18.1,44.5,8.1c77.7-53.9,124-142.4,124-236.8
	C576,152.8,521.4,61.1,438.1,10.1z M480,256c0-68.5-36.1-129.8-92-163.9c-15.1-9.2-34.8-4.5-44,10.6s-4.5,34.8,10.6,44
	C393.1,170.2,416,211,416,256c0,42-20.6,81.3-55.2,105.3c-14.5,10.1-18.1,30-8.1,44.5c6.2,9,16.2,13.8,26.3,13.8
	c6.5,0,12.9-2,18.2-5.7C449.1,378,480,318.9,480,256z M384,256c0-33.7-17.2-64.4-46-81.9c-15.1-9.2-34.8-4.5-44,10.6
	s-4.5,34.8,10.6,44c9.6,5.9,15.3,16.1,15.3,27.3c0,10.5-5.2,20.3-13.8,26.3c-14.5,10.1-18.1,30-8.1,44.5c10.1,14.5,30,18.1,44.5,8.1
	C368.5,317,384,287.5,384,256z"/>
</svg>
